#!OML:ASF E:\emotionWalksFemale\Project 1\Capture day 1\Session 1\Female1.ASF
:FULLY-SPECIFIED
:DEGREES
1
root 7.98312 14.9733 42.3657 179.537 12.5398 177.175
lowerback 6.78581 -1.24858 -5.4465
upperback 0.0377579 -1.96887 -4.70772
thorax -3.74737 -0.787281 -1.64403
lowerneck -2.84668 5.46163 3.60711
upperneck 13.6614 8.25823 -3.7923
head 4.87202 4.24792 -1.30554
rclavicle -2.15681e-014 -1.43125e-014
rhumerus -49.8061 18.5423 -98.6173
rradius 45.3051
rwrist 3.52355
rhand -24.9485 -67.2803
rfingers 7.12502
rthumb -178.439 -82.7457
lclavicle -2.15681e-014 -1.43125e-014
lhumerus -43.6572 12.1314 67.7222
lradius 37.2251
lwrist -21.0027
lhand -12.7892 -32.989
lfingers 7.12502
lthumb 13.2964 -3.43316
rfemur -16.1423 9.98477 18.3141
rtibia 38.8915
rfoot -24.3664 -13.06
rtoes -10.2698
lfemur -9.02644 -11.7188 -28.0762
ltibia 30.4956
lfoot -28.7274 19.9863
ltoes -21.1274
2
root 7.97702 14.9669 42.3565 179.358 12.8121 177.179
lowerback 6.58454 -1.24524 -5.47027
upperback 0.240317 -1.93005 -4.70129
thorax -3.42206 -0.773927 -1.63146
lowerneck -2.93859 5.49557 3.82728
upperneck 13.6806 8.33546 -4.15242
head 4.92038 4.27387 -1.44238
rclavicle 1.59028e-015 3.18055e-014
rhumerus -49.3075 17.9555 -97.6866
rradius 45.1835
rwrist 6.53915
rhand -21.8166 -66.3292
rfingers 7.12502
rthumb -175.414 -83.7404
lclavicle 1.59028e-015 3.18055e-014
lhumerus -43.0885 12.2579 67.7162
lradius 37.053
lwrist -20.7061
lhand -11.4083 -34.1885
lfingers 7.12502
lthumb 14.6271 -4.72432
rfemur -16.0588 10.2882 18.3467
rtibia 39.1836
rfoot -24.5828 -13.0974
rtoes -9.61513
lfemur -8.82975 -11.4265 -28.1394
ltibia 30.5713
lfoot -28.7098 20.0857
ltoes -23.4186
3
root 7.97008 14.963 42.3524 179.176 13.0645 177.129
lowerback 6.74947 -1.2728 -5.57643
upperback 0.220834 -1.99177 -4.66687
thorax -3.52956 -0.801048 -1.52796
lowerneck -2.92659 5.55283 3.88112
upperneck 13.9026 8.4734 -4.35157
head 5.00311 4.33974 -1.49979
rclavicle -6.75868e-015 -6.36111e-015
rhumerus -49.0547 17.3932 -96.8266
rradius 44.9312
rwrist 9.61402
rhand -18.6195 -64.6679
rfingers 7.12502
rthumb -172.328 -85.4913
lclavicle -6.75868e-015 -6.36111e-015
lhumerus -43.0331 12.6661 67.4844
lradius 36.7465
lwrist -21.2657
lhand -11.764 -34.2083
lfingers 7.12502
lthumb 14.2844 -4.71963
rfemur -16.0511 10.04 18.2796
rtibia 39.433
rfoot -24.5788 -12.6014
rtoes -8.58207
lfemur -8.68398 -11.0397 -28.2394
ltibia 30.633
lfoot -28.6043 20.1192
ltoes -23.9825
4
root 7.96242 14.9622 42.3517 179.223 13.2885 177.172
lowerback 6.6935 -1.31978 -5.5286
upperback 0.172047 -2.05438 -4.64064
thorax -3.54906 -0.834525 -1.52199
lowerneck -2.91924 5.60651 3.97559
upperneck 14.1207 8.60856 -4.57971
head 5.0887 4.40427 -1.57256
rclavicle 8.36386e-014 1.43125e-014
rhumerus -48.7724 16.726 -95.9902
rradius 44.7955
rwrist 12.532
rhand -14.9362 -64.0632
rfingers 7.12502
rthumb -168.774 -86.2572
lclavicle 8.36386e-014 1.43125e-014
lhumerus -43.0049 12.9853 67.2417
lradius 36.5354
lwrist -21.5614
lhand -12.0163 -34.2641
lfingers 7.12502
lthumb 14.0413 -4.75842
rfemur -16.2756 9.80071 18.2837
rtibia 39.6462
rfoot -24.4353 -12.2594
rtoes -8.20757
lfemur -8.81295 -10.7337 -28.188
ltibia 30.7348
lfoot -28.4098 20.1632
ltoes -24.9118
5
root 7.95282 14.9638 42.3494 179.296 13.4829 177.304
lowerback 6.6291 -1.39101 -5.29985
upperback 0.0784842 -2.14327 -4.61031
thorax -3.61695 -0.885274 -1.60977
lowerneck -2.72485 5.63734 4.09293
upperneck 14.2288 8.72961 -4.90857
head 5.1137 4.46282 -1.68876
rclavicle 1.87852e-014 4.45278e-014
rhumerus -48.4098 15.7638 -94.7715
rradius 44.6437
rwrist 16.8082
rhand -10.2151 -62.0552
rfingers 7.12502
rthumb -164.223 -88.5678
lclavicle 1.87852e-014 4.45278e-014
lhumerus -43.3647 13.6641 66.5254
lradius 34.8849
lwrist -26.2728
lhand -19.3635 -37.2178
lfingers 7.12502
lthumb 6.95425 -7.35204
rfemur -16.4643 9.72277 18.3899
rtibia 39.837
rfoot -24.195 -11.9867
rtoes -7.56279
lfemur -8.91682 -10.5821 -28.0718
ltibia 30.8521
lfoot -28.4357 20.3231
ltoes -25.3229
6
root 7.94295 14.9624 42.3506 179.307 13.6129 177.458
lowerback 6.68388 -1.46685 -5.03037
upperback 0.0195857 -2.24072 -4.60472
thorax -3.71882 -0.939833 -1.74306
lowerneck -2.55568 5.64689 4.33884
upperneck 14.3133 8.81688 -5.30353
head 5.14286 4.50602 -1.84759
rclavicle -1.44119e-014 6.04305e-014
rhumerus -47.904 14.7271 -93.5196
rradius 44.3757
rwrist 21.2842
rhand -4.88344 -59.8706
rfingers 7.12502
rthumb -159.095 91.2359
lclavicle -1.44119e-014 6.04305e-014
lhumerus -43.379 13.2083 66.9233
lradius 37.0993
lwrist -20.9597
lhand -13.1348 -32.9325
lfingers 7.12502
lthumb 12.9632 -3.35519
rfemur -16.6236 9.64275 18.5457
rtibia 40.0356
rfoot -23.9117 -11.9337
rtoes -8.0697
lfemur -8.9533 -10.431 -27.9399
ltibia 30.9614
lfoot -28.544 20.4008
ltoes -25.3291
7
root 7.93445 14.9586 42.3558 179.375 13.7003 177.44
lowerback 6.60887 -1.51992 -4.9419
upperback 0.0374359 -2.29536 -4.68032
thorax -3.66439 -0.968287 -1.8677
lowerneck -2.58077 5.63954 4.65479
upperneck 14.3768 8.84762 -5.66287
head 5.1974 4.51768 -2.00452
rclavicle 5.01931e-015 3.81667e-014
rhumerus -47.9226 14.9929 -93.9733
rradius 43.5958
rwrist 18.0804
rhand -10.5709 -54.3891
rfingers 7.12502
rthumb -164.566 96.2071
lclavicle 5.01931e-015 3.81667e-014
lhumerus -43.3793 13.1632 66.8252
lradius 37.229
lwrist -21.2495
lhand -12.3003 -32.4437
lfingers 7.12502
lthumb 13.7676 -2.91919
rfemur -16.9413 9.56148 18.5074
rtibia 40.3019
rfoot -23.8465 -11.9324
rtoes -9.30697
lfemur -9.08184 -10.1976 -27.9391
ltibia 30.943
lfoot -28.492 20.1615
ltoes -25.1365
